<?xml version="1.0" encoding="UTF-8" standalone="no"?>
<svg
   width="25.0mm"
   height="80.0mm"
   viewBox="0 0 25.0 80.0"
   displayInline="False"
   version="1.1"
   id="svg1397"
   sodipodi:docname="curve_simplified.svg"
   inkscape:version="1.2.2 (732a01da63, 2022-12-09)"
   xmlns:inkscape="http://www.inkscape.org/namespaces/inkscape"
   xmlns:sodipodi="http://sodipodi.sourceforge.net/DTD/sodipodi-0.dtd"
   xmlns="http://www.w3.org/2000/svg"
   xmlns:svg="http://www.w3.org/2000/svg">
  <sodipodi:namedview
     id="namedview1399"
     pagecolor="#ffffff"
     bordercolor="#999999"
     borderopacity="1"
     inkscape:showpageshadow="0"
     inkscape:pageopacity="0"
     inkscape:pagecheckerboard="0"
     inkscape:deskcolor="#d1d1d1"
     showgrid="false"
     inkscape:zoom="5.6568543"
     inkscape:cx="136.47161"
     inkscape:cy="137.35549"
     inkscape:window-width="3840"
     inkscape:window-height="2054"
     inkscape:window-x="-11"
     inkscape:window-y="-11"
     inkscape:window-maximized="1"
     inkscape:current-layer="g2646"
     inkscape:document-units="mm" />
  <defs
     id="defs1387" />
  <g
     inkscape:label="[fixed] BG"
     inkscape:groupmode="layer"
     sodipodi:insensitive="true"
     id="g2642"
     style="display:inline">
    <rect
       x="0"
       y="0"
       width="25"
       height="80"
       style="fill:#ffffff;fill-opacity:1;stroke:none"
       id="rect2640" />
  </g>
  <g
     inkscape:label="Edge.Cuts"
     inkscape:groupmode="layer"
     id="g2644"
     style="display:inline">
    <path
       id="path1389"
       style="fill:none;stroke:#000000;stroke-opacity:1;stroke-width:0.1;stroke-dasharray:none"
       d="M 2.73255 3.09689 L 2.73374 4.99041 L 2.73731 6.85295 L 2.74324 8.68475 L 2.75152 10.4861 L 2.76214 12.2571 L 2.77509 13.9981 L 2.79035 15.7094 L 2.80792 17.3911 L 2.82778 19.0435 L 2.84992 20.6669 L 2.87432 22.2615 L 2.90098 23.8275 L 2.92988 25.3652 L 2.96101 26.8748 L 2.99436 28.3565 L 3.02992 29.8107 L 3.06767 31.2374 L 3.10761 32.6371 L 3.14971 34.0099 L 3.19397 35.356 L 3.24038 36.6757 L 3.28893 37.9693 L 3.33959 39.237 L 3.39237 40.479 L 3.44725 41.6955 L 3.50421 42.8869 L 3.56324 44.0533 L 3.62434 45.195 L 3.68748 46.3123 L 3.75267 47.4053 L 3.81988 48.4743 L 3.8891 49.5196 L 3.96033 50.5413 L 4.03354 51.5398 L 4.10874 52.5153 L 4.18589 53.468 L 4.265 54.3982 L 4.34606 55.3061 L 4.42904 56.1919 L 4.51394 57.0559 L 4.60074 57.8983 L 4.68944 58.7194 L 4.78002 59.5194 L 4.87247 60.2985 L 4.96677 61.0571 L 5.06292 61.7952 L 5.16091 62.5133 L 5.26071 63.2114 L 5.36232 63.8899 L 5.46573 64.549 L 5.57092 65.189 L 5.67789 65.81 L 5.78661 66.4123 L 5.89709 66.9962 L 6.0093 67.5619 L 6.12323 68.1097 L 6.23888 68.6397 L 6.35623 69.1522 L 6.47527 69.6475 L 6.59598 70.1259 L 6.71835 70.5874 L 6.84238 71.0325 L 6.96805 71.4613 L 7.09535 71.874 L 7.22426 72.271 L 7.35477 72.6524 L 7.48688 73.0186 L 7.62057 73.3696 L 7.75582 73.7059 L 7.89263 74.0275 L 8.03098 74.3349 L 8.17087 74.6281 L 8.31227 74.9074 L 8.45518 75.1732 L 8.59959 75.4255 L 8.74548 75.6648 L 8.89284 75.8911 L 9.04166 76.1048 L 9.19192 76.3061 L 9.34363 76.4952 L 9.49675 76.6724 L 9.65129 76.8379 L 9.80722 76.9919 L 9.96454 77.1348 L 10.1232 77.2667 L 10.2833 77.3878 L 10.4447 77.4985 L 10.6074 77.5989 L 10.7715 77.6894 L 10.9369 77.7701 L 11.1036 77.8412 L 11.2716 77.9031 L 11.4408 77.956 L 11.6114 78 L 11.7831 78.0355 L 11.9562 78.0627 L 12.1304 78.0819 L 12.3059 78.0932 L 12.4826 78.0969 M 22.2326 3.09689 L 22.2314 4.99041 L 22.2278 6.85295 L 22.2219 8.68475 L 22.2136 10.4861 L 22.2029 12.2571 L 22.19 13.9981 L 22.1747 15.7094 L 22.1572 17.3911 L 22.1373 19.0435 L 22.1152 20.6669 L 22.0908 22.2615 L 22.0641 23.8275 L 22.0352 25.3652 L 22.0041 26.8748 L 21.9707 28.3565 L 21.9352 29.8107 L 21.8974 31.2374 L 21.8575 32.6371 L 21.8154 34.0099 L 21.7711 35.356 L 21.7247 36.6757 L 21.6762 37.9693 L 21.6255 39.237 L 21.5727 40.479 L 21.5178 41.6955 L 21.4609 42.8869 L 21.4018 44.0533 L 21.3407 45.195 L 21.2776 46.3123 L 21.2124 47.4053 L 21.1452 48.4743 L 21.076 49.5196 L 21.0048 50.5413 L 20.9315 51.5398 L 20.8563 52.5153 L 20.7792 53.468 L 20.7001 54.3982 L 20.619 55.3061 L 20.536 56.1919 L 20.4511 57.0559 L 20.3643 57.8983 L 20.2756 58.7194 L 20.1851 59.5194 L 20.0926 60.2985 L 19.9983 61.0571 L 19.9022 61.7952 L 19.8042 62.5133 L 19.7044 63.2114 L 19.6028 63.8899 L 19.4994 64.549 L 19.3942 65.189 L 19.2872 65.81 L 19.1785 66.4123 L 19.068 66.9962 L 18.9558 67.5619 L 18.8419 68.1097 L 18.7262 68.6397 L 18.6089 69.1522 L 18.4898 69.6475 L 18.3691 70.1259 L 18.2467 70.5874 L 18.1227 71.0325 L 17.997 71.4613 L 17.8697 71.874 L 17.7408 72.271 L 17.6103 72.6524 L 17.4782 73.0186 L 17.3445 73.3696 L 17.2093 73.7059 L 17.0725 74.0275 L 16.9341 74.3349 L 16.7942 74.6281 L 16.6528 74.9074 L 16.5099 75.1732 L 16.3655 75.4255 L 16.2196 75.6648 L 16.0723 75.8911 L 15.9234 76.1048 L 15.7732 76.3061 L 15.6215 76.4952 L 15.4683 76.6724 L 15.3138 76.8379 L 15.1579 76.9919 L 15.0005 77.1348 L 14.8419 77.2667 L 14.6818 77.3878 L 14.5204 77.4985 L 14.3576 77.5989 L 14.1936 77.6894 L 14.0282 77.7701 L 13.8615 77.8412 L 13.6935 77.9031 L 13.5243 77.956 L 13.3537 78 L 13.182 78.0355 L 13.0089 78.0627 L 12.8347 78.0819 L 12.6592 78.0932 L 12.4825 78.0969" />
  </g>
  <g
     inkscape:label="B.Cu"
     inkscape:groupmode="layer"
     id="g2646"
     style="display:inline">
    <path
       style="color:#000000;fill:#000000;stroke-width:0;stroke-dasharray:none;stroke:none"
       d="M 3.9316406,2.796875 V 3.0976563 38.898437 c 0,0.08196 0.068436,0.150391 0.1503906,0.150391 h 0.1503907 c 0.081954,0 0.1503906,-0.06844 0.1503906,-0.150391 V 3.0976563 H 4.5332031 V 49.972656 c 0,0.08196 0.066483,0.148438 0.1484375,0.148438 h 0.1503906 c 0.081954,0 0.1503907,-0.06648 0.1503907,-0.148438 V 3.0976563 H 5.1328125 V 57.056641 c 0,0.08195 0.068436,0.148437 0.1503906,0.148437 h 0.1484375 c 0.081954,0 0.1503907,-0.06648 0.1503906,-0.148437 V 3.0976563 H 5.7324219 V 62.115234 c 0,0.08196 0.068436,0.150391 0.1503906,0.150391 h 0.1503906 c 0.081954,0 0.1484375,-0.06844 0.1484375,-0.150391 V 3.0976563 H 6.3320312 V 65.908203 c 0,0.08195 0.068436,0.150391 0.1503907,0.150391 h 0.1503906 c 0.081954,0 0.1503906,-0.06844 0.1503906,-0.150391 V 3.0976563 H 6.9316406 V 68.830078 c 0,0.08195 0.068436,0.150391 0.1503906,0.150391 h 0.1503907 c 0.081954,0 0.1503906,-0.06844 0.1503906,-0.150391 V 3.0976563 H 7.5332031 V 71.103516 c 0,0.08195 0.066483,0.15039 0.1484375,0.15039 h 0.1503906 c 0.081954,0 0.1503907,-0.06844 0.1503907,-0.15039 V 3.0976563 H 8.1328125 V 72.878906 c 0,0.08195 0.068436,0.148438 0.1503906,0.148438 h 0.1484375 c 0.081954,0 0.1503907,-0.06648 0.1503907,-0.148438 V 3.0976563 H 8.7324219 V 74.259766 c 0,0.08195 0.068436,0.15039 0.1503906,0.15039 h 0.1503906 c 0.081954,0 0.1484375,-0.06844 0.1484375,-0.15039 V 3.0976563 H 9.3320313 V 75.316406 c -1e-7,0.08195 0.068436,0.150391 0.1503906,0.150391 h 0.1503906 c 0.081954,0 0.1503906,-0.06844 0.1503906,-0.150391 V 3.0976563 H 9.9316406 V 76.109375 c 0,0.08195 0.068436,0.150391 0.1503904,0.150391 h 0.150391 c 0.08195,0 0.150391,-0.06844 0.150391,-0.150391 V 3.0976563 h 0.15039 V 76.673828 c 0,0.08195 0.06648,0.150391 0.148438,0.150391 h 0.15039 c 0.08195,0 0.150391,-0.06844 0.150391,-0.150391 V 3.0976563 h 0.150391 V 77.048828 c -1e-6,0.08195 0.06844,0.148438 0.15039,0.148438 h 0.148438 c 0.08195,0 0.15039,-0.06648 0.15039,-0.148438 V 3.0976563 h 0.150391 V 77.261719 c 0,0.08195 0.06844,0.15039 0.150391,0.15039 h 0.15039 c 0.08195,0 0.148438,-0.06844 0.148438,-0.15039 V 3.0976563 2.796875 H 12.033203 V 3.0976563 77.261719 h -0.15039 V 3.0976563 c 0,-0.081954 -0.06844,-0.1503907 -0.150391,-0.1503907 h -0.150391 c -0.08195,0 -0.15039,0.068436 -0.15039,0.1503907 V 77.048828 H 11.283203 V 3.0976563 c 0,-0.081954 -0.06844,-0.1503907 -0.15039,-0.1503907 h -0.150391 c -0.08195,0 -0.150391,0.068436 -0.150391,0.1503907 V 76.673828 h -0.15039 V 3.0976563 c 0,-0.081954 -0.06648,-0.1503907 -0.148438,-0.1503907 h -0.15039 c -0.08196,0 -0.150391,0.068436 -0.150391,0.1503907 V 76.109375 H 10.082031 V 3.0976563 c 0,-0.081954 -0.06844,-0.1503907 -0.1503904,-0.1503907 H 9.7832031 c -0.081954,0 -0.1503906,0.068436 -0.1503906,0.1503907 V 75.316406 H 9.4824219 V 3.0976563 c 0,-0.081954 -0.068436,-0.1503907 -0.1503906,-0.1503907 H 9.1816406 c -0.081954,0 -0.1484375,0.068436 -0.1484375,0.1503907 V 74.259766 H 8.8828125 V 3.0976563 c 0,-0.081954 -0.068436,-0.1503907 -0.1503906,-0.1503907 H 8.5820313 c -0.081954,0 -0.1503907,0.068436 -0.1503907,0.1503907 V 72.878906 H 8.2832031 V 3.0976563 c 0,-0.081954 -0.068436,-0.1503907 -0.1503906,-0.1503907 H 7.9824219 c -0.081954,0 -0.1503906,0.068436 -0.1503907,0.1503907 V 71.103516 H 7.6816406 V 3.0976563 c 0,-0.081954 -0.066483,-0.1503907 -0.1484375,-0.1503907 H 7.3828125 c -0.081954,0 -0.1503906,0.068436 -0.1503906,0.1503907 V 68.830078 H 7.0820312 V 3.0976563 c 0,-0.081954 -0.068436,-0.1503907 -0.1503906,-0.1503907 H 6.7832031 c -0.081954,0 -0.1503906,0.068436 -0.1503906,0.1503907 V 65.908203 H 6.4824219 V 3.0976563 c 0,-0.081954 -0.068436,-0.1503907 -0.1503907,-0.1503907 H 6.1816406 c -0.081954,0 -0.1484375,0.068436 -0.1484375,0.1503907 V 62.115234 H 5.8828125 V 3.0976563 c 0,-0.081954 -0.068436,-0.1503907 -0.1503906,-0.1503907 H 5.5820312 c -0.081954,0 -0.1503906,0.068436 -0.1503906,0.1503907 V 57.056641 H 5.2832031 V 3.0976563 c 0,-0.081954 -0.068436,-0.1503907 -0.1503906,-0.1503907 H 4.9824219 c -0.081954,0 -0.1503907,0.068436 -0.1503907,0.1503907 V 49.972656 H 4.6816406 V 3.0976563 c 0,-0.081954 -0.066483,-0.1503907 -0.1484375,-0.1503907 H 4.3828125 c -0.081954,0 -0.1503906,0.068436 -0.1503906,0.1503907 V 38.898437 H 4.0820312 V 3.0976563 2.796875 Z"
       id="path1393-3" />
    <path
       style="color:#000000;display:inline;fill:#000000;stroke:none;stroke-width:0;stroke-dasharray:none"
       d="m 21.022999,2.796875 v 0.300781 35.800782 c 0,0.08196 -0.06844,0.150391 -0.15039,0.150391 h -0.150391 c -0.08195,0 -0.15039,-0.06844 -0.15039,-0.150391 V 3.097656 h -0.150391 v 46.875001 c 0,0.08196 -0.06648,0.148438 -0.148438,0.148438 h -0.15039 c -0.08195,0 -0.150391,-0.06648 -0.150391,-0.148438 V 3.097656 h -0.15039 v 53.958986 c 0,0.08195 -0.06844,0.148437 -0.150391,0.148437 h -0.148438 c -0.08195,0 -0.15039,-0.06648 -0.15039,-0.148437 V 3.097656 h -0.150391 v 59.017579 c 0,0.08196 -0.06844,0.150391 -0.15039,0.150391 h -0.150391 c -0.08195,0 -0.148438,-0.06844 -0.148438,-0.150391 V 3.097656 h -0.15039 v 62.810548 c 0,0.08195 -0.06844,0.150391 -0.150391,0.150391 h -0.15039 c -0.08196,0 -0.150391,-0.06844 -0.150391,-0.150391 V 3.097656 h -0.148438 v 65.732423 c 0,0.08195 -0.06844,0.150391 -0.15039,0.150391 h -0.150391 c -0.08195,0 -0.15039,-0.06844 -0.15039,-0.150391 V 3.097656 h -0.150391 v 68.005861 c 0,0.08195 -0.06648,0.15039 -0.148438,0.15039 h -0.15039 c -0.08195,0 -0.150391,-0.06844 -0.150391,-0.15039 V 3.097656 h -0.15039 v 69.781251 c 0,0.08195 -0.06844,0.148438 -0.150391,0.148438 h -0.148438 c -0.08195,0 -0.15039,-0.06648 -0.15039,-0.148438 V 3.097656 h -0.150391 v 71.162111 c 0,0.08195 -0.06844,0.15039 -0.15039,0.15039 h -0.150391 c -0.08195,0 -0.148437,-0.06844 -0.148437,-0.15039 V 3.097656 h -0.15039 v 72.218751 c 0,0.08195 -0.06844,0.150391 -0.150392,0.150391 h -0.15039 c -0.08196,0 -0.150391,-0.06844 -0.150391,-0.150391 V 3.097656 H 15.023 v 73.01172 c 0,0.08195 -0.06844,0.150391 -0.15039,0.150391 h -0.150392 c -0.08195,0 -0.150391,-0.06844 -0.150391,-0.150391 V 3.097656 h -0.15039 v 73.576173 c 0,0.08195 -0.06648,0.150391 -0.148438,0.150391 h -0.15039 c -0.08195,0 -0.150391,-0.06844 -0.150391,-0.150391 V 3.097656 h -0.15039 v 73.951173 c 0,0.08195 -0.06844,0.148438 -0.15039,0.148438 H 13.523 c -0.08195,0 -0.15039,-0.06648 -0.15039,-0.148438 V 3.097656 H 13.222219 V 77.26172 c 0,0.08195 -0.06844,0.15039 -0.150391,0.15039 h -0.15039 c -0.08195,0 -0.148438,-0.06844 -0.148438,-0.15039 V 3.097656 2.796875 h 0.148438 V 3.097656 77.26172 h 0.15039 V 3.097656 c 0,-0.08195 0.06844,-0.15039 0.150391,-0.15039 h 0.150391 c 0.08195,0 0.15039,0.06844 0.15039,0.15039 v 73.951173 h 0.148438 V 3.097656 c 0,-0.08195 0.06844,-0.15039 0.15039,-0.15039 h 0.150391 c 0.08195,0 0.150391,0.06844 0.150391,0.15039 V 76.673829 H 14.273 V 3.097656 c 0,-0.08195 0.06648,-0.15039 0.148438,-0.15039 h 0.15039 c 0.08196,0 0.150391,0.06844 0.150391,0.15039 v 73.01172 H 14.87261 V 3.097656 c 0,-0.08195 0.06844,-0.15039 0.15039,-0.15039 h 0.148438 c 0.08195,0 0.150391,0.06844 0.150391,0.15039 v 72.218751 h 0.15039 V 3.097656 c 0,-0.08195 0.06844,-0.15039 0.150391,-0.15039 H 15.773 c 0.08195,0 0.148438,0.06844 0.148438,0.15039 v 71.162111 h 0.150391 V 3.097656 c 0,-0.08195 0.06844,-0.15039 0.15039,-0.15039 h 0.150391 c 0.08195,0 0.15039,0.06844 0.15039,0.15039 v 69.781251 h 0.148438 V 3.097656 c 0,-0.08195 0.06844,-0.15039 0.150391,-0.15039 h 0.15039 c 0.08195,0 0.150391,0.06844 0.150391,0.15039 V 71.103517 H 17.273 V 3.097656 c 0,-0.08195 0.06648,-0.15039 0.148438,-0.15039 h 0.150391 c 0.08195,0 0.15039,0.06844 0.15039,0.15039 V 68.830079 H 17.87261 V 3.097656 c 0,-0.08195 0.06844,-0.15039 0.15039,-0.15039 h 0.148438 c 0.08195,0 0.150391,0.06844 0.150391,0.15039 v 62.810548 h 0.15039 V 3.097656 c 0,-0.08195 0.06844,-0.15039 0.150391,-0.15039 H 18.773 c 0.08195,0 0.148438,0.06844 0.148438,0.15039 v 59.017579 h 0.150391 V 3.097656 c 0,-0.08195 0.06844,-0.15039 0.15039,-0.15039 h 0.150391 c 0.08195,0 0.15039,0.06844 0.15039,0.15039 v 53.958986 h 0.148438 V 3.097656 c 0,-0.08195 0.06844,-0.15039 0.150391,-0.15039 h 0.15039 c 0.08195,0 0.150391,0.06844 0.150391,0.15039 V 49.972657 H 20.273 V 3.097656 c 0,-0.08195 0.06648,-0.15039 0.148438,-0.15039 h 0.150391 c 0.08195,0 0.15039,0.06844 0.15039,0.15039 V 38.898438 H 20.87261 V 3.097656 2.796875 Z"
       id="path1393-0-5" />
  </g>
  <g
     inkscape:label="F.Cu"
     inkscape:groupmode="layer"
     id="g2648"
     style="display:inline">
    <path
       style="color:#000000;display:inline;fill:#000000;stroke:none;stroke-width:0;stroke-dasharray:none"
       d="M 3.9316406,2.796875 V 3.0976563 38.898437 c 0,0.08196 0.068436,0.150391 0.1503906,0.150391 h 0.1503907 c 0.081954,0 0.1503906,-0.06844 0.1503906,-0.150391 V 3.0976563 H 4.5332031 V 49.972656 c 0,0.08196 0.066483,0.148438 0.1484375,0.148438 h 0.1503906 c 0.081954,0 0.1503907,-0.06648 0.1503907,-0.148438 V 3.0976563 H 5.1328125 V 57.056641 c 0,0.08195 0.068436,0.148437 0.1503906,0.148437 h 0.1484375 c 0.081954,0 0.1503907,-0.06648 0.1503906,-0.148437 V 3.0976563 H 5.7324219 V 62.115234 c 0,0.08196 0.068436,0.150391 0.1503906,0.150391 h 0.1503906 c 0.081954,0 0.1484375,-0.06844 0.1484375,-0.150391 V 3.0976563 H 6.3320312 V 65.908203 c 10e-8,0.08195 0.068436,0.150391 0.1503907,0.150391 h 0.1503906 c 0.081954,0 0.1503906,-0.06844 0.1503906,-0.150391 V 3.0976563 H 6.9316406 V 68.830078 c 0,0.08195 0.068436,0.150391 0.1503906,0.150391 h 0.1503907 c 0.081954,0 0.1503906,-0.06844 0.1503906,-0.150391 V 3.0976563 H 7.5332031 V 71.103516 c 0,0.08195 0.066483,0.15039 0.1484375,0.15039 h 0.1503906 c 0.081954,0 0.1503907,-0.06844 0.1503907,-0.15039 V 3.0976563 H 8.1328125 V 72.878906 c 0,0.08195 0.068436,0.148438 0.1503906,0.148438 h 0.1484375 c 0.081954,0 0.1503907,-0.06648 0.1503907,-0.148438 V 3.0976563 H 8.7324219 V 74.259766 c 0,0.08195 0.068436,0.15039 0.1503906,0.15039 h 0.1503906 c 0.081954,0 0.1484375,-0.06844 0.1484375,-0.15039 V 3.0976563 H 9.3320313 V 75.316406 c -1e-7,0.08195 0.068436,0.150391 0.1503906,0.150391 h 0.1503906 c 0.081954,0 0.1503906,-0.06844 0.1503906,-0.150391 V 3.0976563 H 9.9316406 V 76.109375 c 0,0.08195 0.068436,0.150391 0.1503904,0.150391 h 0.150391 c 0.08195,0 0.150391,-0.06844 0.150391,-0.150391 V 3.0976563 h 0.15039 V 76.673828 c 0,0.08195 0.06648,0.150391 0.148438,0.150391 h 0.15039 c 0.08195,0 0.150391,-0.06844 0.150391,-0.150391 V 3.0976563 h 0.150391 V 77.048828 c -1e-6,0.08195 0.06844,0.148438 0.15039,0.148438 h 0.148438 c 0.08195,0 0.15039,-0.06648 0.15039,-0.148438 V 3.0976563 h 0.150391 V 77.261719 c 0,0.08195 0.06844,0.15039 0.150391,0.15039 h 0.15039 c 0.08195,0 0.148438,-0.06844 0.148438,-0.15039 V 3.0976563 2.796875 H 12.033203 V 3.0976563 77.261719 h -0.15039 V 3.0976563 c 0,-0.081954 -0.06844,-0.1503907 -0.150391,-0.1503907 h -0.150391 c -0.08195,0 -0.15039,0.068436 -0.15039,0.1503907 V 77.048828 H 11.283203 V 3.0976563 c 0,-0.081954 -0.06844,-0.1503907 -0.15039,-0.1503907 h -0.150391 c -0.08195,0 -0.150391,0.068436 -0.150391,0.1503907 V 76.673828 h -0.15039 V 3.0976563 c 0,-0.081954 -0.06648,-0.1503907 -0.148438,-0.1503907 h -0.15039 c -0.08196,0 -0.150391,0.068436 -0.150391,0.1503907 V 76.109375 H 10.082031 V 3.0976563 c 0,-0.081954 -0.06844,-0.1503907 -0.1503904,-0.1503907 H 9.7832031 c -0.081954,0 -0.1503906,0.068436 -0.1503906,0.1503907 V 75.316406 H 9.4824219 V 3.0976563 c 0,-0.081954 -0.068436,-0.1503907 -0.1503906,-0.1503907 H 9.1816406 c -0.081954,0 -0.1484375,0.068436 -0.1484375,0.1503907 V 74.259766 H 8.8828125 V 3.0976563 c 0,-0.081954 -0.068436,-0.1503907 -0.1503906,-0.1503907 H 8.5820313 c -0.081954,0 -0.1503907,0.068436 -0.1503907,0.1503907 V 72.878906 H 8.2832031 V 3.0976563 c 0,-0.081954 -0.068436,-0.1503907 -0.1503906,-0.1503907 H 7.9824219 c -0.081954,0 -0.1503907,0.068436 -0.1503907,0.1503907 V 71.103516 H 7.6816406 V 3.0976563 c 0,-0.081954 -0.066483,-0.1503907 -0.1484375,-0.1503907 H 7.3828125 c -0.081954,0 -0.1503906,0.068436 -0.1503906,0.1503907 V 68.830078 H 7.0820312 V 3.0976563 C 7.0820313,3.015702 7.0135949,2.9472656 6.9316406,2.9472656 H 6.7832031 c -0.081954,0 -0.1503906,0.068436 -0.1503906,0.1503907 V 65.908203 H 6.4824219 V 3.0976563 c 0,-0.081954 -0.068436,-0.1503907 -0.1503907,-0.1503907 H 6.1816406 c -0.081954,0 -0.1484375,0.068436 -0.1484375,0.1503907 V 62.115234 H 5.8828125 V 3.0976563 c 0,-0.081954 -0.068436,-0.1503907 -0.1503906,-0.1503907 H 5.5820312 c -0.081954,0 -0.1503906,0.068436 -0.1503906,0.1503907 V 57.056641 H 5.2832031 V 3.0976563 c 0,-0.081954 -0.068436,-0.1503907 -0.1503906,-0.1503907 H 4.9824219 c -0.081954,0 -0.1503907,0.068436 -0.1503907,0.1503907 V 49.972656 H 4.6816406 V 3.0976563 c 0,-0.081954 -0.066483,-0.1503907 -0.1484375,-0.1503907 H 4.3828125 c -0.081954,0 -0.1503906,0.068436 -0.1503906,0.1503907 V 38.898437 H 4.0820312 V 3.0976563 2.796875 Z"
       id="path1393" />
    <path
       style="color:#000000;display:inline;fill:#000000;stroke:none;stroke-width:0;stroke-dasharray:none"
       d="m 21.022999,2.796875 v 0.300781 35.800782 c 0,0.08196 -0.06844,0.150391 -0.15039,0.150391 h -0.150391 c -0.08195,0 -0.15039,-0.06844 -0.15039,-0.150391 V 3.097656 h -0.150391 v 46.875001 c 0,0.08196 -0.06648,0.148438 -0.148438,0.148438 h -0.15039 c -0.08195,0 -0.150391,-0.06648 -0.150391,-0.148438 V 3.097656 h -0.15039 v 53.958986 c 0,0.08195 -0.06844,0.148437 -0.150391,0.148437 h -0.148438 c -0.08195,0 -0.15039,-0.06648 -0.15039,-0.148437 V 3.097656 h -0.150391 v 59.017579 c 0,0.08196 -0.06844,0.150391 -0.15039,0.150391 h -0.150391 c -0.08195,0 -0.148438,-0.06844 -0.148438,-0.150391 V 3.097656 h -0.15039 v 62.810548 c 0,0.08195 -0.06844,0.150391 -0.150391,0.150391 h -0.15039 c -0.08196,0 -0.150391,-0.06844 -0.150391,-0.150391 V 3.097656 h -0.148438 v 65.732423 c 0,0.08195 -0.06844,0.150391 -0.15039,0.150391 h -0.150391 c -0.08195,0 -0.15039,-0.06844 -0.15039,-0.150391 V 3.097656 h -0.150391 v 68.005861 c 0,0.08195 -0.06648,0.15039 -0.148438,0.15039 h -0.15039 c -0.08195,0 -0.150391,-0.06844 -0.150391,-0.15039 V 3.097656 h -0.15039 v 69.781251 c 0,0.08195 -0.06844,0.148438 -0.150391,0.148438 h -0.148438 c -0.08195,0 -0.15039,-0.06648 -0.15039,-0.148438 V 3.097656 h -0.150391 v 71.162111 c 0,0.08195 -0.06844,0.15039 -0.15039,0.15039 h -0.150391 c -0.08195,0 -0.148437,-0.06844 -0.148437,-0.15039 V 3.097656 h -0.15039 v 72.218751 c 0,0.08195 -0.06844,0.150391 -0.150392,0.150391 h -0.15039 c -0.08196,0 -0.150391,-0.06844 -0.150391,-0.150391 V 3.097656 H 15.023 v 73.01172 c 0,0.08195 -0.06844,0.150391 -0.15039,0.150391 h -0.150392 c -0.08195,0 -0.150391,-0.06844 -0.150391,-0.150391 V 3.097656 h -0.15039 v 73.576173 c 0,0.08195 -0.06648,0.150391 -0.148438,0.150391 h -0.15039 c -0.08195,0 -0.150391,-0.06844 -0.150391,-0.150391 V 3.097656 h -0.15039 v 73.951173 c 0,0.08195 -0.06844,0.148438 -0.15039,0.148438 H 13.523 c -0.08195,0 -0.15039,-0.06648 -0.15039,-0.148438 V 3.097656 H 13.222219 V 77.26172 c 0,0.08195 -0.06844,0.15039 -0.150391,0.15039 h -0.15039 c -0.08195,0 -0.148438,-0.06844 -0.148438,-0.15039 V 3.097656 2.796875 h 0.148438 V 3.097656 77.26172 h 0.15039 V 3.097656 c 0,-0.08195 0.06844,-0.15039 0.150391,-0.15039 h 0.150391 c 0.08195,0 0.15039,0.06844 0.15039,0.15039 v 73.951173 h 0.148438 V 3.097656 c 0,-0.08195 0.06844,-0.15039 0.15039,-0.15039 h 0.150391 c 0.08195,0 0.150391,0.06844 0.150391,0.15039 V 76.673829 H 14.273 V 3.097656 c 0,-0.08195 0.06648,-0.15039 0.148438,-0.15039 h 0.15039 c 0.08196,0 0.150391,0.06844 0.150391,0.15039 v 73.01172 H 14.87261 V 3.097656 c 0,-0.08195 0.06844,-0.15039 0.15039,-0.15039 h 0.148438 c 0.08195,0 0.150391,0.06844 0.150391,0.15039 v 72.218751 h 0.15039 V 3.097656 c 0,-0.08195 0.06844,-0.15039 0.150391,-0.15039 H 15.773 c 0.08195,0 0.148438,0.06844 0.148438,0.15039 v 71.162111 h 0.150391 V 3.097656 c 0,-0.08195 0.06844,-0.15039 0.15039,-0.15039 h 0.150391 c 0.08195,0 0.15039,0.06844 0.15039,0.15039 v 69.781251 h 0.148438 V 3.097656 c 0,-0.08195 0.06844,-0.15039 0.150391,-0.15039 h 0.15039 c 0.08195,0 0.150391,0.06844 0.150391,0.15039 V 71.103517 H 17.273 V 3.097656 c 0,-0.08195 0.06648,-0.15039 0.148438,-0.15039 h 0.150391 c 0.08195,0 0.15039,0.06844 0.15039,0.15039 V 68.830079 H 17.87261 V 3.097656 c 0,-0.08195 0.06844,-0.15039 0.15039,-0.15039 h 0.148438 c 0.08195,0 0.150391,0.06844 0.150391,0.15039 v 62.810548 h 0.15039 V 3.097656 c 0,-0.08195 0.06844,-0.15039 0.150391,-0.15039 H 18.773 c 0.08195,0 0.148438,0.06844 0.148438,0.15039 v 59.017579 h 0.150391 V 3.097656 c 0,-0.08195 0.06844,-0.15039 0.15039,-0.15039 h 0.150391 c 0.08195,0 0.15039,0.06844 0.15039,0.15039 v 53.958986 h 0.148438 V 3.097656 c 0,-0.08195 0.06844,-0.15039 0.150391,-0.15039 h 0.15039 c 0.08195,0 0.150391,0.06844 0.150391,0.15039 V 49.972657 H 20.273 V 3.097656 c 0,-0.08195 0.06648,-0.15039 0.148438,-0.15039 h 0.150391 c 0.08195,0 0.15039,0.06844 0.15039,0.15039 V 38.898438 H 20.87261 V 3.097656 2.796875 Z"
       id="path1393-0" />
  </g>
</svg>
